<svg xmlns="http://www.w3.org/2000/svg" viewBox="0 0 512 512" fill="none">
  <rect width="512" height="512" rx="112" fill="#090d14"/>
  <ellipse cx="256" cy="256" rx="188" ry="68" stroke="#00aaff" stroke-width="4" stroke-opacity="0.4" fill="none"/>
  <ellipse cx="256" cy="256" rx="68" ry="188" stroke="#00aaff" stroke-width="4" stroke-opacity="0.3" fill="none"/>
  <ellipse cx="256" cy="256" rx="138" ry="138" stroke="#00aaff" stroke-width="2.5" stroke-opacity="0.2" fill="none" stroke-dasharray="10 12"/>
  <circle cx="256" cy="256" r="52" stroke="#00aaff" stroke-width="3" stroke-opacity="0.3" fill="none"/>
  <circle cx="256" cy="256" r="36" fill="#0d1b3e"/>
  <circle cx="256" cy="256" r="36" fill="#00aaff" fill-opacity="0.12"/>
  <circle cx="256" cy="256" r="36" stroke="#00aaff" stroke-width="4" stroke-opacity="0.7" fill="none"/>
  <circle cx="256" cy="256" r="16" fill="#00aaff" fill-opacity="0.85"/>
  <circle cx="256" cy="256" r="7" fill="#e0f4ff" fill-opacity="0.9"/>
  <circle cx="444" cy="256" r="24" fill="#0d1b3e"/>
  <circle cx="444" cy="256" r="24" fill="#00aaff" fill-opacity="0.15"/>
  <circle cx="444" cy="256" r="24" stroke="#00aaff" stroke-width="4" stroke-opacity="0.8" fill="none"/>
  <circle cx="444" cy="256" r="10" fill="#00aaff" fill-opacity="0.9"/>
  <circle cx="256" cy="68" r="18" fill="#0d1b3e"/>
  <circle cx="256" cy="68" r="18" fill="#00aaff" fill-opacity="0.12"/>
  <circle cx="256" cy="68" r="18" stroke="#00aaff" stroke-width="3.5" stroke-opacity="0.65" fill="none"/>
  <circle cx="256" cy="68" r="7" fill="#00aaff" fill-opacity="0.75"/>
  <circle cx="104" cy="356" r="14" fill="#0d1b3e"/>
  <circle cx="104" cy="356" r="14" stroke="#00aaff" stroke-width="3" stroke-opacity="0.5" fill="none"/>
  <circle cx="104" cy="356" r="5.5" fill="#00aaff" fill-opacity="0.55"/>
  <circle cx="380" cy="120" r="11" fill="#0d1b3e"/>
  <circle cx="380" cy="120" r="11" stroke="#00aaff" stroke-width="2.5" stroke-opacity="0.45" fill="none"/>
  <circle cx="380" cy="120" r="4.5" fill="#00aaff" fill-opacity="0.45"/>
  <circle cx="68" cy="256" r="16" fill="#0d1b3e"/>
  <circle cx="68" cy="256" r="16" stroke="#00aaff" stroke-width="3" stroke-opacity="0.45" fill="none"/>
  <circle cx="68" cy="256" r="6" fill="#00aaff" fill-opacity="0.4"/>
  <line x1="292" y1="256" x2="420" y2="256" stroke="#00aaff" stroke-width="2.5" stroke-opacity="0.4"/>
  <line x1="256" y1="220" x2="256" y2="86" stroke="#00aaff" stroke-width="2.5" stroke-opacity="0.35"/>
  <line x1="231" y1="280" x2="117" y2="344" stroke="#00aaff" stroke-width="2" stroke-opacity="0.3"/>
  <line x1="278" y1="232" x2="371" y2="128" stroke="#00aaff" stroke-width="2" stroke-opacity="0.28"/>
  <line x1="220" y1="256" x2="84" y2="256" stroke="#00aaff" stroke-width="2" stroke-opacity="0.28"/>
</svg>
